<?xml version="1.0" encoding="UTF-8" standalone="no"?>
<svg
   xmlns:dc="http://purl.org/dc/elements/1.1/"
   xmlns:cc="http://creativecommons.org/ns#"
   xmlns:rdf="http://www.w3.org/1999/02/22-rdf-syntax-ns#"
   xmlns:svg="http://www.w3.org/2000/svg"
   xmlns="http://www.w3.org/2000/svg"
   xmlns:xlink="http://www.w3.org/1999/xlink"
   xmlns:sodipodi="http://sodipodi.sourceforge.net/DTD/sodipodi-0.dtd"
   xmlns:inkscape="http://www.inkscape.org/namespaces/inkscape"
   width="517.99268"
   height="601.52576"
   id="svg2"
   version="1.1"
   inkscape:version="0.91 r13725"
   sodipodi:docname="Flag-map_of_Burundi.svg">
  <metadata
     id="metadata38">
    <rdf:RDF>
      <cc:Work
         rdf:about="">
        <dc:format>image/svg+xml</dc:format>
        <dc:type
           rdf:resource="http://purl.org/dc/dcmitype/StillImage" />
        <dc:title></dc:title>
      </cc:Work>
    </rdf:RDF>
  </metadata>
  <sodipodi:namedview
     pagecolor="#ffffff"
     bordercolor="#666666"
     borderopacity="1"
     objecttolerance="10"
     gridtolerance="10"
     guidetolerance="10"
     inkscape:pageopacity="0"
     inkscape:pageshadow="2"
     inkscape:window-width="1600"
     inkscape:window-height="837"
     id="namedview36"
     showgrid="false"
     fit-margin-top="0"
     fit-margin-left="0"
     fit-margin-right="0"
     fit-margin-bottom="0"
     inkscape:zoom="0.8131728"
     inkscape:cx="276.36355"
     inkscape:cy="300.35153"
     inkscape:window-x="-8"
     inkscape:window-y="-8"
     inkscape:window-maximized="1"
     inkscape:current-layer="svg2"
     showguides="true" />
  <defs
     id="defs4">
    <g
       id="b"
       style="fill:#1eb53a">
      <g
         id="s">
        <g
           id="t">
          <g
             id="c">
            <path
               id="h"
               d="M 0,-20 0,0 20,0"
               transform="matrix(0.8660254,0.5,-0.5,0.8660254,-10,-2.6794919)"
               inkscape:connector-curvature="0" />
            <use
               xlink:href="#h"
               transform="scale(-1,1)"
               id="use11"
               x="0"
               y="0"
               width="100%"
               height="100%" />
          </g>
          <use
             xlink:href="#c"
             transform="matrix(-0.5,0.8660254,-0.8660254,-0.5,0,0)"
             id="use13"
             x="0"
             y="0"
             width="100%"
             height="100%" />
          <use
             xlink:href="#c"
             transform="matrix(-0.5,-0.8660254,0.8660254,-0.5,0,0)"
             id="use15"
             x="0"
             y="0"
             width="100%"
             height="100%" />
        </g>
        <use
           xlink:href="#t"
           transform="scale(-1,-1)"
           id="use17"
           x="0"
           y="0"
           width="100%"
           height="100%" />
      </g>
      <use
         xlink:href="#s"
         transform="scale(0.82,0.82)"
         id="use19"
         style="fill:#ce1126"
         x="0"
         y="0"
         width="100%"
         height="100%" />
    </g>
    <use
       id="star"
       xlink:href="#b"
       x="250"
       y="106"
       width="100%"
       height="100%" />
  </defs>
  <path
     style="fill:#ce1126;stroke:#ce1126;stroke-width:1.5;stroke-miterlimit:4;stroke-dasharray:none;stroke-opacity:1"
     clip-path="none"
     d="m 392.09182,0.76045165 -1.57227,0.11914062 -3.02539,1.76757823 -0.98633,1.1679687 -1.48633,3.703125 -1.38867,2.1835937 -1.37891,2.1640631 -0.4375,0.689453 -3.08789,1.388672 -3.1289,1.40625 -5.81641,0.265625 -4.33594,1.882812 -5.92187,0.210938 -3.72461,-0.388672 -5.4668,-1.480469 -4.77539,-3.138672 -1.71094,-1.126953 -1.15234,0.117188 -0.83008,0.693359 -0.46289,1.214844 -0.42578,5.486328 -0.4082,1.164062 -2.70899,2.025391 -1.97265,2.496094 -3.5625,6.146484 -2.65625,2.236328 -1.46289,0.697266 -3.87305,1.117187 -4.80664,1.384766 -1.67774,0.330078 -2.30859,-0.189453 -5.04883,-1.75 -5.27734,-4.222656 -6.45313,-6.585938 -2.43359,-4.048828 -1.12891,-1.876953 -3.49218,-3.660156 -3.90039,-2.601563 -6.77344,-0.507812 -2.0918,-0.154297 -3.53711,-2.9746098 -5.37304,-3.0644531 -0.58985,0.00586 -0.041,0 -1.29688,1.5390624 -0.0156,0.7929688 -0.0957,4.5839847 -1.96484,3.390625 -0.5,2.957032 0.22265,1.472656 2.24415,5.148437 0.73242,6.107422 1.78515,6.626953 0.18946,3.558594 0.37109,6.980469 -0.91797,3.380859 -3.6582,1.455078 -1.92969,1.28125 -0.93359,1.220703 -1.68946,4.970704 -0.59375,4.220703 -2.37695,4.238281 -0.4082,1.480469 -0.0312,0.970703 -0.0937,2.93164 2.19531,5.462891 0.27344,7.589844 -0.59961,3.642578 1.48828,2.464844 0.17383,1.738281 -0.69141,1.572266 -0.95703,2.183593 -1.05469,4.712888 -1.09765,1.05664 -2.05274,7.04102 -6.25,8.49023 -0.75195,2.24609 -1.20117,1.28907 -2.22071,1.23047 -0.8164,1.79882 -0.82422,0.70899 -5.73047,0.41992 -1.52344,0.90625 -1.59179,0.33008 -3.41797,3.22265 -1.98438,-1.58789 -2.16797,-0.11523 -1.28125,-1.14453 -0.90429,-1.78711 -1.66407,-1.27149 -1.84765,-0.11523 -5.27539,1.82422 -2.48438,0.20703 -0.50195,1.02734 0.26367,1.34571 -1.6875,5.19531 -0.16406,0.31055 -0.7207,1.36523 a 170,170 0 0 1 47.74009,-6.96289 170,170 0 0 1 121.05273,50.72266 l 24.22071,-14.53321 -1.51172,-1.21289 -0.21094,-2.53515 -0.90234,-1.95703 -0.21485,-2.85157 -0.92382,-0.5625 -0.6543,-0.66015 -1.52735,0.58593 -1.59374,-0.11718 -1.2168,-1.14453 -0.14258,-1.91993 -1.59375,-0.17968 -0.57617,-0.44532 1.07617,-1.03125 4.7793,-8.35937 0.0664,-0.66211 0.0527,-0.55469 -0.58399,-1.46875 0.62891,-1.41406 1.58984,-0.13867 0.9336,-3.01563 0.89257,-0.19726 0.75586,-1.09571 1.18164,-3.78711 -0.71679,-2.23437 0.49805,-1.79688 -0.33008,-1.4707 -1.79688,-1.97266 1.50781,-2.89257 3.80665,-2.13868 1.39062,-1.41992 0.24023,-1.79297 0.5586,-0.40625 0.66797,-1.53515 2.45703,-0.91797 1.47851,0.93555 1.36328,-0.0137 0.44532,-0.41211 1.6875,-1.55664 3.05468,-4.29882 3.86329,-2.14454 2.27734,-3.18359 0.65625,-4.699216 -2.02148,-0.980469 -1.26172,-1.044922 -1.87891,1.230469 -3.06445,3.138668 -2.77149,1.46875 -5.21679,2.76953 -3.18164,2.34766 -1.51954,-0.30274 -2.43945,-2.82421 -3.04883,-0.81641 -2.36914,-1.13867 -1.11718,-1.46484 0.0254,-3.109379 0.61914,-1.166015 1.87304,-1.810547 2.01563,-3.392578 0.64062,-1.19336 7.35547,-13.640625 3.16797,-3.349609 2.25195,-6.347656 2.98633,-6.142578 0.43555,-1.425782 1.6543,-5.394531 3.85156,-8.785156 3.11133,-4.035156 3.51172,-5.935547 5.21093,-3.13086 1.51563,-1.042968 -2.33008,-2.667969 -4.83786,-1.326152 -2.89844,-1.818359 -0.25195,-0.03125 -4.52344,-0.556641 -3.39453,-3.974609 -3.68555,-1.917969 -1.89062,-0.457031 -4.27539,-3.123047 -1.34375,-3.677735 -0.94922,-0.675781 -1.16992,-1.8339845 -0.27344,-1.421875 0.49609,-3.0097657 -0.37109,-0.3652343 -1.63086,0.1972656 -1.19727,0.1464844 -2.76367,1.6582031 -2.09765,0.019531 -2.05274,-1.1425779 -2.9668,-3.3984375 -1.63085,-0.61718755 z M 24.037133,79.233108 l -2.355469,2.203125 -3.09375,0.419922 -0.65625,0.402344 -0.900391,3.185547 -1.365234,2.328125 0.615234,3.042969 1.339844,3.035156 -0.185547,1.658203 -1.496094,2.857422 -0.1875,1.259765 0.916016,8.406244 -0.04883,0.58399 121.513668,72.91406 a 170,170 0 0 1 58.52149,-38.67969 l -1.25196,-1.44922 -1.27539,-0.375 -8.89062,-5.51757 -2.88477,-0.0977 -0.36328,-0.0117 -1.46289,0.52149 -2.67188,2.79101 -0.0488,0.0488 -4.26368,1.00391 -1.23047,-0.0625 -5.79492,-0.29102 -0.3125,0.0606 -4.36328,0.84765 -6.78906,3.89063 -1.71875,1.65039 -2.12695,1.19336 -2.13672,0.375 -3.36524,-0.99609 -4.15234,-3.70118 -0.54883,-0.26367 -1.54492,-0.74219 -7.90234,-1.83007 -3.27539,-2.32813 -1.48829,-0.0488 -1.00781,-0.0332 -3.04492,0.99609 -2.07227,1.75586 -2.89453,0.99414 -1.42383,0.26563 -3.71875,-0.63477 -2.78515,1.86328 -0.4961,1.05664 -2.00781,4.28321 -1.98242,0.37304 -0.51172,-0.35351 -0.11914,-2.25 -3.85937,-5.59766 -0.0567,-0.86914 1.00196,-2.00195 0.0332,-2.30274 -1.59766,-2.64648 -1.48632,-1.47266 -1.759766,-3.77148 0.597657,-1.74414 1.693359,-1.29688 2.35547,-1.80273 0.24414,-1.23047 -0.67774,-2.24609 -2.113276,-3.66407 -0.228516,-3.11914 -3.279297,-3.04492 -1.390625,-2.0332 0.238281,-2.09961 0.01367,-0.0352 0.984375,-2.73632 -0.90039,-4.74805 -0.617188,-0.916016 -1.175781,-0.65625 -1.941406,-0.179687 -1.625,-0.150391 -1.121094,-0.453125 -2.966797,-1.970703 -3.416016,-1.099609 -2.304687,-1.875 -3.677734,-1.865235 -4.375,0.136719 -4.417969,1.210938 -1.273438,-0.144531 -4.285156,-1.654297 -3.076172,-0.5625 -2.248047,0.132812 -1.521484,-0.5 -4.798828,-1.578125 -1.919922,-1.783203 -2.246094,-2.933594 -1.085937,-0.505859 -2.103516,-0.244141 -1.841797,0.650391 -2.533203,2.445312 -1.085937,0.07031 -1.910123,-0.310534 -2.941406,-1.839844 -4.392578,0.214844 -3.599609,-1.777344 z m 114.019527,340.802732 -60.908199,36.54688 4.1875,6.39453 0.46875,0.71875 6.02539,4.5039 5.88086,6.28125 4.683593,6.03125 1.111331,2.13672 2.373035,7.7793 1.36524,4.47851 1.80273,4.06641 0.24805,5.38477 2.83203,15.71875 0.4375,4.69531 0.12891,1.39062 0.33984,3.63282 0.89844,22.00781 0.5957,8.11914 0.39258,5.31445 -0.27148,5.49219 0.6914,8.67578 -0.0781,12.16797 0.38867,3.49219 22.33594,-0.18946 25.51562,-0.21875 9.58203,0.16797 15.92969,0.2793 4.70508,0.9043 4.05859,1.5625 3.03906,0.62695 6.13477,-0.84766 0.70117,0.21875 0.89258,0.27539 3.55859,2.07227 3.33008,0.84375 1.87695,-0.30664 2.3711,-1.68555 0.2793,-1.16211 -0.76954,-5.93945 0.42383,-1.08984 2.78321,-4.51758 5.79296,-3.7461 0.22071,-1.27929 1.02539,-3.02735 -0.14453,-2.24023 0.375,-1.3457 1.13672,-1.80078 1.26953,-0.97071 1.33789,-0.51953 1.85156,0.0527 2.56445,1.45703 1.46485,-0.39258 0.76562,0.25195 1.49219,3.32031 0.51172,0.38086 2.49023,0.17774 3.82422,-0.92188 1.07031,-2.37695 0.88868,-0.77344 1.08203,-0.26367 0.2539,-0.33008 1.32813,-1.72851 0.76367,-0.32618 3.00195,0.30274 5.66211,-2.78906 4.64844,-1.75977 2.02734,-2.12695 3.17579,-2.45313 2.07812,-4.36719 1.70898,-1.93359 3.43164,-0.43359 0.8418,-0.10547 0.64063,0.50781 1.26953,-1.16211 1.5957,0.11914 1.33399,-0.77734 4.375,-4.44727 5.16406,-0.99414 0.17969,-1.47461 1.26367,-2.05859 -0.0781,-2.04883 2.8125,0.62305 0.50196,-0.90039 -1.54493,-2.23047 0.18946,-0.57813 1.65039,-0.9707 -0.26367,-1.2793 0.25,-0.66992 0.0625,-0.16601 -0.5918,-2.68555 0.31055,-1.21875 1.07617,-1.28906 -0.32813,-1.59766 0.56641,-1.09375 1.77734,-1.29101 -0.008,-1.08985 1.9043,-1.61328 0.37109,-1.73242 0.88281,-1.54102 0.29688,-3.14062 2.09375,-1.8711 4.77734,-1.4414 5.3418,-3.04102 2.28515,-1.30078 11.78321,-12.46094 0.41992,-0.1914 0.59375,-0.27539 0.93359,-1.61524 4.51758,-9.54101 4.58594,-2.75586 2.88086,-4.18555 0.40039,-2.55078 -0.875,-3.51563 0.0176,-2.75781 1.34179,-2.35351 0.40821,-0.7168 1.1582,-5.08985 0.1875,-0.82226 1.40625,-3.45117 0.89258,-4.42188 0.79297,-1.23828 3.32031,-2.32226 1.53906,-6.8711 a 170,170 0 0 1 -93.69519,28.36137 170,170 0 0 1 -121.05078,-50.72461 z"
     id="path22"
     inkscape:connector-curvature="0" />
  <path
     style="opacity:1;fill:#ffffff;fill-opacity:1;stroke:#ce1126;stroke-width:1.5;stroke-miterlimit:4;stroke-dasharray:none;stroke-opacity:1"
     clip-path="none"
     d="m 16.619164,108.61592 -0.03516,0.4043 -0.158203,1.86132 -1.154297,4.51172 -1.294921,3.12305 -0.570313,2.98437 -1.738281,1.60352 0.605469,1.89258 -0.519532,1.37305 -3.7421871,0.63671 -0.9785157,0.53907 -5.7832031,6.54882 -0.44726558,1.10547 -0.050781,3.46289 1.08203128,2.92188 3.1230469,2.79101 2.3925781,1.00977 2.1562502,-0.0527 1.205078,-0.46485 3.023437,-1.16601 0.642578,0.0723 3.992188,7.46485 0.970703,3.34179 2.101562,2.64649 3.916016,2.44336 0.212891,3.3457 -0.8125,2.74609 -0.0098,3.99414 0.441406,1.02344 1.060547,2.46485 1.482422,0.71289 2.080078,-0.20704 1.982422,1.85157 3.679688,0.96093 3.583984,3.43555 2.652344,0.5586 1.396484,0.39453 0.966797,1.6582 1.025391,0.89062 -0.175782,2.75586 1.361328,4.34766 -0.02734,2.19727 -0.0059,0.22656 1.626953,0.11719 1.798828,0.1289 1.353516,2.49024 4.033203,3.56445 2.431641,1.46094 1.529297,0.11914 2.927734,-0.78516 0.06055,-0.44726 0.384766,0.2539 3.054687,-0.6582 0.324219,0.83008 -0.63086,1.09375 0.13086,1.02343 1.792969,1.01563 0.390625,1.66211 2.628906,2.86719 0.134766,1.02343 -0.632813,0.77149 -0.117187,0.77539 -0.06836,0.44336 1.794922,1.5918 -0.884766,1.54101 1.15625,1.4668 -0.185546,0.83398 -1.523438,1.16016 -0.433594,2.17969 -0.884765,0.96679 1.091797,1.65821 0.0078,1.3457 1.537109,1.5918 -0.820312,1.1582 0.324219,0.83008 -1.65625,0.45703 -0.439454,1.15625 0.644532,1.27734 -1.978516,-0.50195 -0.498047,1.79492 -1.789062,-0.56641 -0.01758,0.1211 32.019531,19.21289 a 170,170 0 0 0 -7.763587,50.70696 170,170 0 0 0 7.90625,50.62109 l -26.226562,15.73829 0.224609,4.41015 -0.652344,3.24805 -0.386719,17.99219 -0.373046,2.70312 -0.835938,6.04492 -1.558594,11.30274 2.267578,10.70312 0.08203,3.97461 0.470703,2.74414 0.726562,4.20117 0.01563,1.98633 2.535156,11.9043 1.488282,3.85742 1.427734,2.9707 0.929688,1.41993 60.908196,-36.54688 a 170,170 0 0 0 121.05078,50.72461 170,170 0 0 0 93.71094,-28.42969 l 0.56054,-2.50195 1.2168,-1.07227 2.99414,-1.23242 0.375,-0.15429 4.19727,-3.73047 2.73437,-1.55274 2.32422,-4.6875 0.30469,-3.99414 2.3125,-1.50586 0.54297,-0.76953 0.17383,-4.11719 0.76953,-3.86914 1.41992,-1.83789 2.24023,-1.46094 1.09961,-0.36718 1.71094,-1.80469 0.95312,-0.45508 2.6875,1.39063 3.37305,-1.04688 0.83594,0.89063 0.76562,-0.13477 1.0918,1.27344 0.45899,1.66406 1.14843,-0.008 1.22071,1.20703 1.14843,0.0566 0.70703,0.89062 0.82422,-1.02929 -0.19922,-1.08789 0.93946,-2.11914 0.23828,-2.5 -0.79883,-4.60742 -0.23437,-0.67579 -3.2168,-9.35351 0.88086,-1.41602 0.0547,-1.41015 1.24414,-4.29883 1.82617,-3.15235 -0.20703,-2.24023 0.43359,-1.66797 1.40234,-0.13672 0.31446,-0.57812 -0.52149,-1.66407 0.82422,-0.83593 0.17383,-2.24414 1.01172,-1.03125 0.62695,-1.41407 1.58594,-1.48242 0.74609,-2.24804 1.71094,-1.86915 1.33594,-0.39453 1.82422,-3.34179 0.79101,-5.19336 -0.14062,-2.04883 -1.42774,-3.32031 -0.0195,-2.62696 4.06641,-1.94922 2.91015,-3.1582 0.25,-0.36523 3.09376,-4.52539 1.21289,0.11718 1.0039,-2.24804 1.14649,-0.13477 2.30273,1.00781 1.99023,1.5879 1.33985,0.31054 1.70312,-1.5918 a 170,170 0 0 0 3.87887,-35.70289 170,170 0 0 0 -7.9043,-50.62305 l 87.27149,-52.36718 0.14648,-0.21485 3.34961,-4.93359 0.27149,-1.1211 2.07421,-3.00585 1.48438,-1.36329 -1.29688,-1.18164 -1.10546,-0.65039 -3.81446,1.17969 -2.35547,0.27344 -1.83593,1.42383 -1.78711,-0.3711 -3.36719,1.24219 -1.97461,0.0781 -1.69727,0.88477 -1.54101,0.80273 -2.61328,-0.17187 -4.38867,0.99023 -2.16993,-0.10937 -3.44726,-1.25586 -2.05078,-1.20117 -3.78711,-3.81446 -0.95703,-0.12304 -4.44532,2.01758 -1.38671,2.06054 -1.77149,1.67774 -1.14648,0.26367 -0.39649,-0.47461 -1.61719,-2.30078 -1.20898,-1.00195 -2.40625,-1.05665 -0.51172,-0.6914 -0.44922,-0.94727 0.0879,-3.93359 -0.45898,-2.08594 -8.50781,-5.75586 -4.37696,-2.28906 -2.5332,-1.32422 -4.33789,-5.16016 -0.69531,-0.37304 -0.63477,-0.0586 -1.30273,2.23243 -4.1211,4.85742 -6.07422,5.38281 -4.63867,3.33984 -1.29687,0.14063 -0.5918,0.0664 -4.41016,-1.31445 -0.48828,-0.8457 -0.80078,-0.0703 -3.70703,-5.35547 -0.76367,-0.56446 -1.83399,-0.36328 -0.1914,-0.3789 1.05859,-1.53125 -0.38476,-0.50391 -0.69727,-0.5 -2.65039,-0.10351 -1.53906,-1.23243 -24.22071,14.53321 a 170,170 0 0 0 -121.05274,-50.72265 170,170 0 0 0 -47.77148,7.02148 l -1.22266,2.3125 -0.88672,0.83985 -7.32422,0.68359 -2.28515,1.03906 -2.67188,0.5293 -0.26367,-0.30469 a 170,170 0 0 0 -58.54883,38.64844 L 16.619164,108.61592 Z"
     id="rect4175"
     inkscape:connector-curvature="0" />
  <use
     xlink:href="#star"
     id="use30"
     clip-path="none"
     transform="matrix(2,0,0,2,-240.89161,0.76045166)"
     x="0"
     y="0"
     width="100%"
     height="100%" />
  <use
     xlink:href="#star"
     transform="matrix(-1,1.7320508,-1.7320508,-1,768.91601,17.747752)"
     id="use32"
     clip-path="none"
     x="0"
     y="0"
     width="100%"
     height="100%" />
  <use
     xlink:href="#star"
     transform="matrix(-1,-1.7320508,1.7320508,-1,249.30077,883.77315)"
     id="use34"
     clip-path="none"
     x="0"
     y="0"
     width="100%"
     height="100%" />
  <path
     style="fill:#1eb53a;stroke:#1eb53a;stroke-width:2;stroke-miterlimit:4;stroke-dasharray:none;stroke-opacity:1"
     clip-path="none"
     d="m 508.47463,197.77022 -87.27149,52.36718 a 170,170 0 0 1 7.9043,50.62305 170,170 0 0 1 -3.9043,35.72656 l 2.1211,-1.98242 2.01758,-3.4082 1.01171,-0.83985 5.85938,-1.0664 1.8125,-0.68164 2.82226,-1.52149 3.95899,-4.32812 2.4707,-0.92188 4.6836,-0.52929 11.21875,-8.82422 2.60351,-1.47852 0.88086,-1.10937 0.36719,-5.54688 -0.98828,-2.68945 -0.83789,-1.30664 -4.29493,-2.38281 -1.18359,-1.23438 -0.20117,-0.54883 -1.07031,-2.90039 1.08593,-1.94726 5.60157,-5.38282 2.60351,-1.61523 1.26758,-1.29883 0.71094,-0.72656 1.78125,-0.98633 5.49218,-2.12891 5.22852,-1.01757 1.57422,-1.05274 1.08398,-1.67187 0.1875,-2.2168 0.60938,-1.18164 1.30664,-0.2207 2.35742,1.36328 1.86328,0.53515 6.76563,-2.99023 0.4375,-0.19336 4.81445,-1.08398 2.19531,-0.91993 6.71875,-3.52539 1.84766,-1.40039 -0.22266,-1.52148 -2.3164,-4.6836 -0.16407,-2.83593 0.60547,-1.45899 1.90821,-2.16406 1.42382,-2.57422 0.004,-0.42187 0.0371,-2.55469 1.72461,-6.9375 0.004,-2.51563 -1.61915,-4.35742 -3.70703,-5.07031 -0.33593,-3.24609 0.51172,-2.78907 -0.13672,-2.35937 -3.09766,-2.12891 -2.56836,-1.47656 -4.50976,-6.69141 0.0547,-1.08984 0.95313,-0.45508 1.38476,-1.99609 1.8418,-0.97266 1.62695,-3.85547 1.08399,-1.59765 z m -443.623044,33.07031 -0.166016,1.16211 0.460937,2.23828 -0.333984,0.67773 -1.873047,3.81641 0.458985,2.17578 -1.640625,2.76367 1.341797,0.56836 0.199218,1.2793 -1.591797,0.20117 -0.367187,2.5 0.517578,1.5332 1.800781,2.61524 0.0078,1.60156 -1.828125,3.66211 -0.117188,1.72852 1.421875,3.38671 1.757813,2.05665 2.6875,1.54492 0.513672,0.82422 -0.105469,0.32617 -0.09766,0.30273 -7.34961,5.75586 -1.130859,1.94336 -0.810547,3.19531 0.5,4.12696 0.302734,8.2832 0.08984,2.43555 1.679688,8.875 2.615234,8.97656 2.234375,13.47266 0.257813,0.67968 1.177734,3.12891 1.52539,9.13867 0.863282,11.08008 0.58789,11.47461 0.345704,6.74805 26.226562,-15.73829 a 170,170 0 0 1 -7.906229,-50.62109 170,170 0 0 1 7.763672,-50.70703 L 64.851586,230.84053 Z"
     id="path24"
     inkscape:connector-curvature="0" />
</svg>
