<?xml version="1.0" encoding="UTF-8" standalone="no"?>
<svg
   xmlns:dc="http://purl.org/dc/elements/1.1/"
   xmlns:cc="http://creativecommons.org/ns#"
   xmlns:rdf="http://www.w3.org/1999/02/22-rdf-syntax-ns#"
   xmlns:svg="http://www.w3.org/2000/svg"
   xmlns="http://www.w3.org/2000/svg"
   xmlns:sodipodi="http://sodipodi.sourceforge.net/DTD/sodipodi-0.dtd"
   xmlns:inkscape="http://www.inkscape.org/namespaces/inkscape"
   width="987.47772"
   height="996.76984"
   id="svg6941"
   sodipodi:version="0.32"
   inkscape:version="0.47 r22583"
   sodipodi:docname="ZZ2.svg"
   inkscape:output_extension="org.inkscape.output.svg.inkscape"
   sodipodi:modified="true"
   version="1.0">
  <metadata
     id="metadata11520">
    <rdf:RDF>
      <cc:Work
         rdf:about="">
        <dc:format>image/svg+xml</dc:format>
        <dc:type
           rdf:resource="http://purl.org/dc/dcmitype/StillImage" />
      </cc:Work>
    </rdf:RDF>
  </metadata>
  <defs
     id="defs11518">
    <inkscape:perspective
       sodipodi:type="inkscape:persp3d"
       inkscape:vp_x="0 : 500 : 1"
       inkscape:vp_y="0 : 1000 : 0"
       inkscape:vp_z="990 : 500 : 1"
       inkscape:persp3d-origin="495 : 333.33333 : 1"
       id="perspective14" />
    <inkscape:perspective
       id="perspective2839"
       inkscape:persp3d-origin="0.5 : 0.33333333 : 1"
       inkscape:vp_z="1 : 0.5 : 1"
       inkscape:vp_y="0 : 1000 : 0"
       inkscape:vp_x="0 : 0.5 : 1"
       sodipodi:type="inkscape:persp3d" />
    <inkscape:perspective
       id="perspective2828"
       inkscape:persp3d-origin="0.5 : 0.33333333 : 1"
       inkscape:vp_z="1 : 0.5 : 1"
       inkscape:vp_y="0 : 1000 : 0"
       inkscape:vp_x="0 : 0.5 : 1"
       sodipodi:type="inkscape:persp3d" />
    <inkscape:perspective
       id="perspective2841"
       inkscape:persp3d-origin="0.5 : 0.33333333 : 1"
       inkscape:vp_z="1 : 0.5 : 1"
       inkscape:vp_y="0 : 1000 : 0"
       inkscape:vp_x="0 : 0.5 : 1"
       sodipodi:type="inkscape:persp3d" />
    <inkscape:perspective
       id="perspective2854"
       inkscape:persp3d-origin="0.5 : 0.33333333 : 1"
       inkscape:vp_z="1 : 0.5 : 1"
       inkscape:vp_y="0 : 1000 : 0"
       inkscape:vp_x="0 : 0.5 : 1"
       sodipodi:type="inkscape:persp3d" />
  </defs>
  <sodipodi:namedview
     inkscape:window-height="1004"
     inkscape:window-width="1280"
     inkscape:pageshadow="2"
     inkscape:pageopacity="0.0"
     guidetolerance="10.0"
     gridtolerance="10.0"
     objecttolerance="10.0"
     borderopacity="1.0"
     bordercolor="#666666"
     pagecolor="#ffffff"
     id="base"
     inkscape:zoom="0.23586845"
     inkscape:cx="751.53547"
     inkscape:cy="-291.31409"
     inkscape:window-x="-8"
     inkscape:window-y="-8"
     inkscape:current-layer="g18002"
     height="1000px"
     width="990px"
     showgrid="false"
     inkscape:window-maximized="1" />
  <g
     inkscape:groupmode="layer"
     id="layer1"
     inkscape:label="test"
     style="display:inline"
     transform="translate(-19.756186,48.769855)">
    <g
       transform="translate(-2145.1181,220.75899)"
       id="layer2" />
    <g
       id="g18002"
       transform="matrix(1.076716,0,0,1.076716,-228.47028,96.859268)"
       style="stroke:none">
      <path
         id="path6967"
         d="m 678.41033,-135.25305 -7.75,6.75 -1,1 -4,3 -1,1 -3,1 -1,1 -9,0 c -0.663,0.019 -2.1547,0.181 -2,-1 l -1,0 c -0.663,0.019 -2.1547,0.181 -2,-1 l -3,-1 -1,-1 -1,0 c -0.663,0.019 -2.1547,0.181 -2,-1 l -10,-3 c -0.663,0.019 -2.1547,0.181 -2,-1 l -1,0 c 0.155,1.1814 -1.3366,1.01861 -2,1 l -1,1 c -1.2,6.14 5.177,8.124 9,11 l 1,1 3,2 1,1 1,1 c 1.1814,-0.155 1.01862,1.3366 1,2 l 0,1 -1,1 0,1 -1,1 -1,1 -1,1 -2,0 c 0.155,1.1814 -1.3366,1.01862 -2,1 l -12,0 -8.75,-0.25 -0.25,-0.75 -2,0 -0.25,0.75 -16.75,0.25 -8,-1 c -0.663,0.019 -2.1547,0.181 -2,-1 l -1,0 -1,-1 -1,0 -1,-1 -1,0 -1,-1 -4,-1 -6,0 -1,1 -1,1 -1,1 -1,1 -6,7.999995 -1,1 -1,1 -1,1 c -2.816,0.97095 -5.836,1.2269 -9,1 l -1,-1 -1,-1 -1,-1 c -0.0153,-2.092 0.356,-4.300995 -1,-5.999995 l -1,-1 c -1.345,-0.334 -2.7372,0.709 -3,2 l -1,1 -3,1.999995 -1,1 -1,1 -3,1 c 0.155,1.1814 -1.3366,1.01862 -2,1 l -3,0 c -1.105,1.992 -4.749,0.79199 -6.75,0.75 l -0.25,-0.75 c -1.077,-0.1028 -2.5432,0.387 -3.25,-0.75 -5.137,-0.042 -7.198,-5.892995 -11.75,-7.249995 l -1,-1 -1,0 -1,-1 -1,0 -9,0 -1,0 -1,1 c -2.975,1.143 -4.2,5.911195 -8,4.999995 -0.447,1.597 -4.5528,1.597 -5,0 l -5,-1.999995 -1,-1 -5,-4 -1,-1 -1,-1 -2,-1 -1,-1 -1,0 -1,-1 -8,-2 c -0.663,0.019 -2.1547,0.181 -2,-1 -0.947,0.1898 -2.94414,-0.592 -3,1 l -1,5 0,3 -1,1 c -0.191,5.092995 -6.063,6.711995 -10,7.999995 0.155,1.1814 -1.3366,1.01862 -2,1 l -2,0 -0.25,0.75 c -2.408,0.4155 -5.092,0.4155 -7.5,0 l -0.25,-0.75 -1,0 -1,-1 -3,-1 c -0.663,0.019 -2.1547,0.181 -2,-1 l -1,0 -5,1 -2,0 c 0.155,1.1814 -1.3366,1.01862 -2,1 l -4,2 -1,1 -5,2 -1,1 -5,1 c -0.056,1.592 -2.0529,0.8102 -3,1 l -1,0 -4,1 -9,0 c -0.947,-0.1898 -2.94414,0.592 -3,-1 l -14,1 -2,0 c 0.155,1.1814 -1.3366,1.01862 -2,1 l -1,0 c 0.155,1.1814 -1.3366,1.01862 -2,1 -1.284,0.482 -2.5176,1.716 -3,3 l -1,1 -1,1 -1,1 -1,1 -3,2 -1,1 -2,1 -1,1 -2,1 c 0.155,1.1814 -1.3366,1.01862 -2,1 -4.6,1.7106 -9.972,0.7687 -15,1 l -2,-1 -4,0 c -0.663,0.019 -2.1547,0.181 -2,-1 l -17,0 c -0.947,-0.1898 -2.94415,0.592 -3,-1 l -2,0 c -0.663,0.019 -2.1547,0.181 -2,-1 l -3,0 -1,-1 -1,0 c -0.663,0.019 -2.1547,0.181 -2,-1 l -1,0 c -0.663,0.019 -2.1547,0.181 -2,-1 l -4,-1 c -0.947,-0.1898 -2.94415,0.592 -3,-1 -3.164,-0.227 -6.184,0.0291 -9,1 l -1,1 -1,0 -1,1 -2,1 -1,1 -2,1 -1,1 -2,1 -1,1 c -3.164,0.227 -6.184,-0.0291 -9,-1 l 0,7 c -0.733,2.753 2.1373,4.421 2,7 l 1,1 0,1 c 1.1814,-0.155 1.01861,1.3366 1,2 l 0,7 1,4.000005 1,0.999994 1,1.000004 1,0.999994 1,0 1,1.000004 4,1.000004 c 0.663,-0.01904 2.1547,-0.181004 2,0.999994 5.335,-1.246995 7.621,4.633005 12,6.000004 l 8.75,0.250001 0.25,0.749993 3.75,1.250005 c 1.27,5.370998 6.147,8.511994 9.25,12.750001 l 1,0.999994 5,6.0000037 1,0.9999944 1,2.0000074 1,0.9999945 1,1.9999981 1,1.00000377 0,6.00000363 1,1.9999982 1,13.9999963 c -0.567,3.168004 1.341,5.708005 2.75,8.250003 l 0.25,1.749997 1,1.000004 1,3.000002 c 1.1814,-0.154999 1.01862,1.336601 1,1.999998 l 1,3.000002 1,0.999994 1,1.999998 1,1.000004 2,3.999996 1,1.000004 0,1.000004 1,0.999994 4,9.000006 1,0.999994 0,1.000004 c 1.592,0.056 0.8102,2.0529 1,3.000002 0.625,4.708995 -0.694,8.849994 -2,12.999992 l -1,1.000004 0,1.000004 c 0.019,0.662997 0.181,2.1547 -1,1.999998 -0.726,4.982995 7.355,9.861003 2.25,14.249997 l -1.25,2.750001 -1,1.000006 0,1 -1,1 0,0.99999 -1,1.00001 0,1 -1,1 c -1.207,2.945 -3.6604,5.513 -3,9 l -1,1 -4,6.99999 -1,1.00001 -2,3 -1,1 -2,3 -1,1 -1,2 -1,1 -1,1 -1,1 -1,1 -1,1 -1,1 -1,1 -1,1 -1,2 c 1.542,2.268 2.152,8.2823 -2,8 l -1,0.99999 -0.75,0.25001 c -0.543,3.2177 -4.46,4.901 -7,3 l -7.25,6.74999 -1,1.00001 -3,2 558,0 0,-1 -1,-2.00001 -1,-0.99999 -1,-1 -3,-2 -1,-1.00001 c -1.616,-0.80199 -3.1981,-2.38399 -4,-3.99999 -1.1814,0.155 -1.01862,-1.3366 -1,-2 l 0,-1 c -1.592,-0.056 -0.8102,-2.0529 -1,-3.00001 -0.3,-4.062 1.319,-9.79199 -3,-11.99999 l -1,-1 -5,-2 -1,-1 -1,-1 -1,-1 -2,-3 -1,-1 -1,-2 -1,-1.00001 0,-0.99999 -1,-1 -2,-5 c -1.1814,0.155 -1.01862,-1.33661 -1,-2 -1.1334,-4.339 -3.606,-9.51701 -1,-14 l 0,-1.000006 c -0.019,-0.662997 -0.181,-2.1547 1,-1.999998 l 4.75,-5.250001 c 0.197,-1.393998 0.4827,-2.583002 1.25,-3.749995 -0.359,-4.910004 2.991,-9.437001 7,-12.000008 l 1,-0.999994 c 1.955,-1.028006 3.574,-3.111498 6,-3.000002 l 1,-1.000004 4,-0.999994 1,-1.000004 12,-3.999996 1,-1.000004 4,-1.000004 1,-0.999994 3,-1.000004 c -0.155,-1.181398 1.3366,-1.018616 2,-0.999994 l 4,-1.999998 c -0.155,-1.181407 1.3366,-1.018625 2,-1.000004 1.616,-0.802004 3.1981,-2.383999 4,-4.000006 l 1,-0.999994 1,-3.000002 1,-1.000004 0,-0.999994 c -0.019,-0.662997 -0.181,-2.1547 1,-1.999998 l 0.25,-1.750007 c 1.0148,-1.553 2.1139,-3.238997 1.75,-5.250001 1.91699,-3.729999 0.84583,-8.625998 0.75,-12.749991 l -0.75,-0.250001 -1,-1.000004 -3,1.000004 c -0.447,1.596995 -4.5528,1.596995 -5,0 l -3,0 -1,-1.000004 -1,0 -1,-1.000004 -1,-0.999994 -1,-1.000004 -1,-0.999994 -1,-1.000004 -1,-1.000004 -1,-0.999994 -1,-1.000004 -1,-0.999994 -1,-1.000004 -2,-3.000002 -1,-0.999994 -1,-1.0000042 -3,-3.9999963 -1,-1.0000037 -7.25,-7.7500009 -1.75,-0.2500009 -6,-0.9999945 c -2.386,-0.1890006 -4.999,-1.6970027 -6,-4.0000055 l -1,-0.9999945 1,-8.0000015 1,-1.000004 1,-3.000002 c -0.019,-0.662997 -0.181,-2.15469 1,-1.999998 l 0,-5.999994 -1,-1.000004 -1,-0.999994 -5,0 c 0.155,1.181398 -1.3366,1.018616 -2,0.999994 l -2,1.000004 -1,0.999994 -7,5 -1,1.000004 -1,0 -1,0.999994 c -3.164,0.227005 -6.184,-0.02907 -9,-0.999994 l -1,-1.000004 -2,-0.999994 -1,-1.000004 -1,-0.999994 -3,-1.000004 -5,-1.000004 -1,0 -0.25,0.750003 c -3.739,0.416396 -7.761,0.416396 -11.5,0 l -0.25,-0.750003 c -1.852,-0.198994 -4.3206,-1.033996 -5,-2.999992 l -1,-1.000004 c 0.328,-1.544 -0.2883,-2.766997 -1,-3.999996 l -1,-1.000004 c -0.482,-1.283997 -1.716,-2.5176 -3,-3.000002 l -1,-0.999994 -1,0 -1,-1.000005 -2,0 -1,-1 -1,0 -1,-1 c -0.951,-0.18 -1.8202,-1.049 -2,-2 l -1,-1 c -0.685,-2.34 -0.992,-5.532 -3,-7 l -1,-1 c -3.985,2.61 0.107,9.915 -5,12 -1.105,1.991999 -4.749,0.79199 -6.75,0.75 l -0.25,-0.75 c -1.544,0.328 -2.767,-0.2883 -4,-1 l -1,-1 c -1.93,-0.406 -2.0878,-2.654 -3,-4 l -1,-1 0,-1 c -1.1814,0.155 -1.01862,-1.3366 -1,-2 l -1,-4 c -1.592,-0.056 -0.8102,-2.0529 -1,-3 0.235,-2.692 -0.708,-5.737 1,-8 l 1,-1 3,-1 c 0.056,-1.592 2.0529,-0.8102 3,-1 l 4,0 7,1 6,0 11,0 c 1.876,-0.913 4.2323,-1.799 5,-4 l 1,-1 0,-2 c -1.1814,0.155 -1.01862,-1.3366 -1,-2 -2.35,-5.084 -6.418,-9.612 -11,-13 l -1,-1 -7,-5 -8,0 -3,0 c -0.056,1.592 -2.0529,0.8102 -3,1 l -3,0 c -0.187,1.555 -3.8133,1.555 -4,0 l -3,0 -1,-1 -1,0 -1,-1 c -1.456,-0.672995 -3.3257,-2.146995 -3,-3.999995 -1.59701,-0.447 -1.59701,-4.5528 0,-5 -0.414,-3.437 3.95505,-4.844 4,-8 -0.663,0.019 -2.1547,0.181 -2,-1 -1.948,-1.128 -3.872,-3.051 -5,-5 l -1,-1 c 0.14,-1.809 0.085,-3.552 -1,-5 l -0.25,-6.75 z m -4.75,79.749995 2,0 c 0.0559,1.592 2.053,0.8102 3,1 l 1,1 1,0 1,1 c 0.951,0.1798 1.82,1.049 2,2 l 1,1 0,1 1,1 0,1 1,1 0,3 -1,1.000005 -1,0.999994 -1,1.000004 -1,0.999994 -1,0 -4,0 -1,0 -1,-0.999994 -1,-1.000004 -1,0 -1,-0.999994 -1,-1.000005 -1,-1 0,-1 -1,-1 0,-1 0,-1 0,-4 0,-2 1,-1 c 0.9471,-0.1898 2.944,0.592 3,-1 z m 56,33.000001 2,0 3,0 1,0.999994 1,1.000004 1,0 1,1.000004 1,0.999994 0,1.000004 1,1.000004 c 0.6705,2.112999 -1.575,2.211994 -3,1.999998 l -1,-1.000004 -1,0 -1,-0.999994 -1,-1.000004 -1,0 -1,-1.000004 -1,-0.999994 -1,-3.000002 z m 95,128.000004 c -0.056,1.592 -2.0529,0.8102 -3,1 l -1,0 -1,1 c -1.8884,0.298 -2.0022,2.288 -2.25,3.75 -3.42,6.115 2.778,15.01799 10,12 l 0.25,-0.75 1,-1 c 2.281,-1.457 4.543,-3.719 6,-6 l 1,-1 1,-1.00001 1,-0.99999 1,-1 1,-1 0,-2.00001 c -0.263,-1.291 -1.655,-2.33359 -3,-1.99999 -0.947,-0.1898 -2.94416,0.592 -3,-1 l -3,0 -3,0 -3,0 z"
         style="fill:#ff0000;stroke:none;display:inline" />
      <path
         id="path8647"
         d="m 258.66033,164.49694 -0.75,0.25 c 0.495,3.011 -1.854,4.557 -3.25,6.75 l 2.25,2.75 c 3.126,1.552 8.00447,2.635 8,7 3.98,3.331 6.821,7.366 9.5,11.5 0.4068,1.088 0.4068,2.412 0,3.5 -3.9839,0.731 -4.1149,4.994 -3.75,8.25 -2.135,3.88 -1.016,9.091 -4.75,12.25 l -0.25,2.75 c 1.15839,1.375 0.8658,3.09 1.25,4.75 5.235,6.52 11.333,12.509 15,20 2.83,1.098 5.625,1.737 7.5,4.5 1.8326,5.17 5.165,11.029 2,16.50001 l -3.5,0.5 -0.25,1.75 c 3.934,5.95 7.979,11.82199 12.75,17.24999 l 0.25,5.75001 c -3.83,5.798 -12.83,1.45899 -17.25,6.74999 -1.59,0.688 -3.306,1.172 -4.5,2.5 -0.4118,1.41401 -0.4118,3.086 0,4.5 8.17,7.348 17.53,14.0786 28.75,14.25 l 2.25,1.75001 3.75,0.25 3.25,1.74999 c 9.31,1.91001 17.47,7.226 25,13.00001 4.894,2.29799 9.613,4.881 14,8 l 7.75,1.24999 17.75,0.25 0.25,0.75001 8,2 11.25,-7.75001 c 6.08,-1.92 13.62301,-2.163 18,3.50001 1.856,0.86739 3.57401,1.65029 5.75,1.24999 4.711,-1.347 7.8,-9.651 13,-6.99999 1.077,0.10279 2.5432,-0.38701 3.25,0.75 l 2.75,0.24999 c 5.59001,-4.23049 12.5,-3.91399 19,-5 l 8.25,6.75001 c 6.28,-0.082 12.194,2.05699 17.00001,5.99999 12.72999,4.05 21.87999,14.89 34.49999,19.50001 l 5.50001,8.49999 11.49999,8.50001 c 0.159,1.31399 1.08,2.15659 2,3 l 2.5,12.5 c 2.504,5.33099 10.44701,8.20099 8.75,15.24999 l 0.25001,2.75 8.49999,0.5 c 1.28701,2.013 1.2098,4.194 1.50001,6.5 l 10,7 c 4.638,-0.225 11.5865,0.845 10.99999,7 1.809,3.208 5.45601,2.755 7.5,5.5 l 0.5,4.5 c 2.82701,2.695 5.15,5.701 7,9 3.01,1.778 5.487,4.417 8,7 l 2.75,0.25 27,-8 3.75001,0.25 c 1.43399,1.761 3.21999,2.9529 5.25,3.75 14.22,0.79 23.65199,-11.529 33.24999,-20.75 3.316,-1.08081 6.87801,-1.8122 10.5,-1 l 8,4 16.5,21.5 c 6.834,6.16 11.2495,14.266 11.75001,23.25 l 280.99996,0 c -0.406,-1.93 -2.654,-2.0878 -4,-3 -8.67997,-0.44 -16.70397,-5.165 -21.74996,-12.25 -3.08001,-10.02 -9.026,-18.623 -14.50001,-27.5 l -4.75,-2.25 -12,-1 c -17.86999,-7.13 -36.432,-20.68 -43.25,-39.75 -2.11099,-3.369 -4.72909,-6.762 -5,-11 l -1.75,-2.24999 c -0.14,-1.80901 -0.085,-3.55201 1.00001,-5 l -4.25001,-4.75 c -2.197,-1.01501 -4.19399,-2.35301 -5.99999,-4.00001 l -42.5,-5.49999 c -1.40601,-0.88201 -2.95901,-1.526 -4.00001,-3 -0.55159,-2.61201 -1.7779,-4.875 -1.25,-7.75 0.794,-4.141 4.29701,-6.76201 7.25,-9.75 l 6.75,-3.25001 c 18.34,-2.078 37.58,-0.74879 56,0 2.359,1.56091 4.90001,2.19364 7.75001,2.25 l 7.99999,6.50001 c 1.328,-1.194 1.81191,-2.91001 2.5,-4.50001 8.713,-7.50999 6.77501,-19.61999 8,-30 0.775,-1.91599 2.084,-3.2246 4.00001,-4 2.09099,-0.503 4.16499,-0.988 5.99999,-1.99999 1.725,-0.044 2.924,-0.95801 4.50001,-1.50001 4.78749,-8.34 -0.122,-19.34299 4.24999,-27.75 l -0.25,-1.75 c -4.01,-2.70299 -0.55299,-9.57899 4,-8.49999 0.41391,-1.74401 0.41391,-3.75601 0,-5.5 -2.208,-2.30701 -4.362,-4.6989 -7.5,-5.50001 -1.795,-3.141 -4.2677,-5.676 -4.5,-9.5 -6.3,0.02 -11.633,5.379 -18.74999,3.75 -6.733,-2.5 -9.21001,-9.682 -13.25001,-14.75 l -10.5,-3.5 c -15.38,-8.7 -30.35,-18.033 -45.99999,-26 l -38,-33 c -2.17901,-4.428 -3.07401,-9.085 -4.25001,-13.75 l -559,0 -1,-1 z m 390,270 5,0 1,1 0,1 0,4 0,3 -1,1 0,1 -1,1 -4,0 -1,0 -1,-1 c -1.181,0.1547 -1.019,-1.337 -0.99999,-2 l 0,-3 0,-1 0,-1 0.99999,-1 0,-1 1,-1 1,-1 z"
         style="fill:#0000aa;stroke:none;display:inline" />
      <path
         id="path9857"
         d="m 1008.6603,485.49695 1,1 1,2 1,1 0,1 1,1 0,1 1,1 0,1 c -0.019,0.6634 -0.1814,2.155 1,2 l 0,1 1,1 1,1 0,1 1,1 1,1 1,1 1,1 1,1 2,1 1,1 1,0 c -0.1547,1.181 1.337,1.019 2,1 l 3,0 c 0.1867,1.555 3.813,1.555 4,0 l 3,0 c 0.6634,0.0186 2.155,0.1814 2,-1 l 3,0 1,-1 1,0 c 0.6634,0.0186 2.155,0.1814 2,-1 l 2,-1 c 0.6634,0.0186 2.155,0.1814 2,-1 l 1,0 1,-1 1,0 1,-1 2,-1 1,-1 1,0 1,-1 3,-1 1,-1 1,0 c 0.6634,0.0186 2.155,0.1814 2,-1 l 4,3 1,1 5,0 1,4 2,4 1,1 c 0.1797,0.951 1.049,1.82 2,2 l 1,1 3,0 c -0.1547,1.181 1.337,1.019 2,1 l 11,0 7,1 c 0.6634,0.0186 2.155,0.1814 2,-1 1.233,-0.7117 2.456,-1.328 4,-1 -0.1547,1.181 1.337,1.019 2,1 l 2,0 1,1 1,1 1,1 1,1 1,2 1,1 1,3 c -0.019,0.6634 -0.1814,2.155 1,2 l 0,1 1,1 0,1 -4,1 -1,0 -1,1 -1,0 -1,1 -1,1 -1,1 -1,1 -1,3 c -1.478,-0.0405 -1.478,3.041 0,3 l 2,6 -1,1 -4,-1 c 0.2222,-1.333 -2.222,-1.333 -2,0 l -1,0 -1,1 -10,9 -1,1 -2,1 c -0.6634,-0.0186 -2.155,-0.1814 -2,1 l -8.75,0.25 c -2.621,2.883 -6.728,5.408 -6.25,9.75 -1.478,-0.0405 -1.478,3.041 0,3 l 0,3 c 0.1898,0.9471 -0.592,2.944 1,3 l 0,1 1,0.99999 0,1.00001 1,1 0,1 1,1 0,0.99999 1,1.00001 1,1 c 0.4824,1.284 1.716,2.518 3,2.99999 l 1,1.00001 2,1 1,1 2,1 1,0.99999 1,0 1,1.00001 1,0 1,1 1,0 1,1 3,1 1,0.99999 1,0 c -0.1547,1.18101 1.337,1.01901 2,1.00001 l 1,0 c 0.7315,1.621 5.269,1.621 6,0 0.6634,-0.0186 2.155,-0.18141 2,1 l 1,1 0,1.99999 c -0.019,0.66341 -0.1814,2.15501 1,2.00001 -0.019,0.6634 -0.1814,2.155 1,2 l 0,2 c 0.1898,0.9471 -0.592,2.944 1,3 l 0,3 c -0.019,0.6634 -0.1814,2.155 1,2 l 1,3 1,1 0,1 1,0.99999 0,1.00001 1,1 1,1 2,3 1,1 1,0 1,1 4,0 1,1 1,0.99999 1,1.00001 1,1 1,1 7,6 1,0.99999 1,1.00001 0,1 -8.75,0.24999 -0.25,0.75001 -3,1 -1,0.99999 -2,1.00001 -1,1 -1,1 -1,1 -1,0.99999 c -0.6391,1.06 -3.154,4.92001 -4,3.00001 l -1,-1 -2,-4 -1,-1 -1,-1 c -1.833,-0.0798 -4.537,-0.3736 -5,2 l -2,1 c -0.1797,-0.951 -1.049,-1.82001 -2,-2 l -1,-1 -2,-1.00001 -1,-0.99999 -2,0 -1,-1 -2,0 c -0.1867,-1.555 -3.813,-1.555 -4,0 l -6,1 -1,0.99999 -1,1.00001 -1,1 -1,1 0,1.99999 c -1.181,-0.15469 -1.019,1.337 -1,2.00001 l 0,2.99999 -1,4.00001 1,5 1,0.99999 1,1.00001 1,1 1,1 1,0 1,1 c 0.6634,-0.0186 2.155,-0.1814 2,0.99999 -0.019,0.66341 -0.1814,2.15501 1,2.00001 l 0,2 1,0.99999 4,1.00001 c 0.056,1.592 2.053,0.8102 3,1 1.809,-0.14 3.552,-0.0847 5,1 l 1,1 3,2 1,1 0,2.99999 0,1.00001 c -0.019,0.66339 -0.1814,2.15499 1,2 l 1,4 c 0.1898,0.94709 -0.592,2.944 1,2.99999 l 0,3.00001 0.25,8.75 0.75,0.25 0,1 1,1 1,2 -1,5 c -1.181,-0.1547 -1.019,1.337 -1,2 l -1.25,7.75 c -1.195,0.2516 -2.521,0.9243 -2.75,2.25 -1.592,0.0558 -0.8102,2.053 -1,3 l 0,3 -1,4 0,4 c 0.1898,0.9471 -0.592,2.944 1,3 l 0,3 c -0.019,0.6634 -0.1814,2.15499 1,2 l 1,3 1,1 0,1 1,1 0,1 1,1 0,1 1,1 0,1 1,1 0,1 1,1 0,1 c -0.019,0.6634 -0.1814,2.155 1,2 -0.019,0.6634 -0.1814,2.155 1,2 l 1,2 -1,1 -4,-2 -5,-1 -3,0 c 0.1547,-1.181 -1.337,-1.01901 -2,-1 l -2,0 c 0.1547,-1.181 -1.337,-1.019 -2,-1 l -3,0 -9,0 -1,0 -1,0 -1,-1 -9,-4 c 0.1547,-1.18101 -1.337,-1.019 -2,-1 l -2,0 -1,-1 c -3.007,-0.4943 -5.568,0.5169 -8,2 -0.6634,-0.0186 -2.155,-0.1814 -2,1 l -1,0 -1,1 -1,0 c -0.6634,-0.0186 -2.155,-0.1814 -2,1 l -2,0 -4,1 -1,0 -1,1 -1,0 -1,1 -1,1 -2,1 -1,1 -8,6 -1,1 c -0.6634,-0.0186 -2.155,-0.1814 -2,1 -2.838,-0.985 -3.865,2.169 -6,3 l -1,1 -1,1 -1,1 -1,0 c -0.9471,0.18979 -2.944,-0.592 -3,1 l -1,0 -1,-1 c 0.019,-0.6634 0.1814,-2.155 -1,-2 l -2,-5 -1,-1 -1,-2 -1,-1 -1,-2 -1,-1 -1,-1 0,-1 -1,-1 -1,-1 -1,-2 -1,-1 -2,-4 -1,-1 -1,-2 -1,-1 0,-1 -1,-1 -1,-3 -0.99997,-1 0,-1 c 0.0186,-0.66341 0.1814,-2.155 -1,-2 l 0,-1 c 0.0186,-0.6634 0.1814,-2.155 -1,-2 l 0,-1 c 0.0186,-0.6634 0.1814,-2.155 -0.99999,-2 l 0,-1 c 0.0186,-0.6634 0.18139,-2.155 -1.00001,-2 l -1,-4 -1,-1 0,-2 -1,-1 -0.99999,-4 c 0.0186,-0.6634 0.18139,-2.155 -1.00001,-2 l 0,-1 c 0.0186,-0.6634 0.18141,-2.155 -1,-2 0.0186,-0.6634 0.1814,-2.155 -1,-2 -0.7297,-3.08 -1.743,-6.073 -3,-9.00001 0.0186,-0.66339 0.18141,-2.15499 -1,-1.99999 l -1,-4 -1,-1 -3,-8.00001 -1,-0.99999 0,-1 -1,-1 -0.99999,-2.00001 -1.00001,-0.99999 -1,-2 -1,-1 0,-1.00001 -1,-0.99999 0,-1 -0.99999,-1 -1.00001,-1 -2,-3 -1,-1 -2,-3 -1,-1 -1,-1 -1,-2.00001 -0.99999,-0.99999 -1.00001,-2 -1,-1 0,-1.00001 -1,-0.99999 0,-4.00001 0,-3.99999 0,-3 1,-1 0,-1 1,-1.00001 1.00001,-0.99999 3.99999,-5 1.00001,-1 0.99999,-1 1,-1 0,-1.00001 1,-0.99999 0,-3 c 1.18101,0.1547 1.01901,-1.337 1,-2 -0.1898,-0.9471 0.59201,-2.944 -1,-3 l 0,-1.00001 -1,-0.99999 0,-1 -1,-1 -0.99999,-1 -1.00001,-1.00001 -1,-0.99999 -1,-1 -1.99999,-1 -1.00001,-1 -1,-1.00001 -1,0 -1,-0.99999 -3,-1 -1,-1 -1.99999,0 -1.00001,-1 -1,0 -1,-1.00001 -1.99999,0 -1.00001,-0.99999 -1,0 -1,-1 -1.99999,-1 -1.00001,-1 -2,-1.00001 -1,-0.99999 -5,-4.00001 -0.99999,-0.99999 -1.00001,-1 -2,-3.00001 -1,-0.99999 -0.99999,-2 -1.00001,-1 c -0.1797,-0.95101 -1.049,-1.82 -2,-2 0.15471,-1.181 -1.337,-1.01901 -1.99999,-1 l -1.00001,0 c 0.1547,-1.181 -1.337,-1.019 -2,-1 l -1.99999,0 c -0.0558,-1.59201 -2.05301,-0.8102 -3.00001,-1 l -1.99999,0 -5,-1.00001 c -1.34501,0.33361 -2.73701,-0.70889 -3.00001,-1.99999 l -1,-1 c -0.22689,-3.164 0.029,-6.18401 1,-9 l 1,-1 1,-1 5,-6 1.00001,-1 1.99999,-3 1,-1 1,-1 1.00001,-2 0.99999,-1 0,-1 c 1.59701,-0.4472 1.59701,-4.553 0,-5 l 0,-2 -0.99999,-1 -1.00001,-4 c 0.0186,-0.6634 0.18141,-2.155 -1,-2 l 0,-2 -1,-12 c 1.592,-0.0558 0.8102,-2.053 1,-3 l -1,-10 -1,-1 c -0.17969,-0.951 -1.04899,-1.82 -2,-2 l -1,-1 -2.99999,-2 -1.00001,-1 -1,0 -1,-1 -1,0 -0.99999,-1 -1.00001,0 c 0.1547,-1.181 -1.337,-1.019 -2,-1 l -6.99999,-1 c 0.15469,-1.181 -1.337,-1.019 -2.00001,-1 l -1,0 c -0.4472,-1.597 -4.553,-1.597 -5,0 l -1.99999,1 -1.00001,1 -2,1 -1,1 -0.99999,0 -1.00001,1 -2,1 -1,1 -4,0 -0.25,-0.75 c -3.073,-0.4161 -6.42699,-0.4161 -9.49999,0 l -0.25001,0.75 -1.99999,0 c -0.94711,0.1898 -2.94401,-0.592 -3.00001,1 l -5,2 -1,1 -4,3 -1,1 -0.99999,1 -2.00001,1 -2,0 -2,0 -1,1 -1,0 -1,1 -2,1 -1,1 -2,1 -0.99999,1 -2.00001,1 -1,1 -1.99999,1 -1.00001,1 -2,1 -1,1 -7,3 -4,0 -3,-1 -1,-1 -1,-1 -1,-1 -1,-1 -1,-2 -1,-1 -1,-1 c -0.4824,-1.284 -1.716,-2.518 -3,-3 l -1,-1 -1,-1 -1,0 -1,-1 -3,0 -0.25,-0.75 -14.75,-0.25 -1,0 c 0.1547,-1.181 -1.337,-1.019 -2,-1 l -1,-1 0,-1 -1,-1 0,-1 c -0.1898,-0.9471 0.592,-2.944 -1,-3 l 0,-3 c -0.1898,-0.9471 0.592,-2.944 -1,-3 l 0,-2 -1,-1 c -0.6017,-2.458 -1.58,-5.747 -4,-7 l -1,-1 -2,-1 -1,-1 -2,0 -1,-1 c -5.125,0.2628 -13.76,-1.75 -15,5 -1.181,-0.1547 -1.019,1.337 -1,2 l 0,2 -1,1 c -0.1797,0.951 -1.049,1.82 -2,2 l -1,1 -5,1 c 0.1547,-1.181 -1.337,-1.019 -2,-1 l -1,0 -1,-1 c -0.951,-0.1797 -1.82,-1.049 -2,-2 l -1,-1 0,-4 1,-4 0,-2 c 1.181,0.1547 1.019,-1.337 1,-2 0.7864,-3.635 2.731,-6.925 2,-11 l 283.99997,0 z"
         style="fill:#ff9900;stroke:none;display:inline" />
    </g>
  </g>
</svg>
